# xmcd CD database file
#
# Track frame offsets:
#	150
#	27453
#	43081
#	62394
#	82139
#	95998
#	115639
#	140183
#	160959
#	176879
#	191807
#	207282
#	225252
#	240950
#
# Disc length: 3409 seconds
#
# Revision: 1
# Processed by: cddbd v1.5.1PL0 Copyright (c) Steve Scherf et al.
# Submitted via: CDex 1.51
#
DISCID=c40d4f0e
DTITLE=Inka Gold - Without Limits
DYEAR=2004
DGENRE=New Age
TTITLE0=RainMaker
TTITLE1=Celoso
TTITLE2=Everything I Do
TTITLE3=Mariposa Traicionera
TTITLE4=Hast Que Amanezca
TTITLE5=I Must Have Been Love
TTITLE6=Asi Fue
TTITLE7=Playing By Heart
TTITLE8=The Last Of The Mohicans
TTITLE9=Sounds Of Silence
TTITLE10=25 Rosas
TTITLE11=Heaven
TTITLE12=Beyond The Trail of Tears
TTITLE13=Amazing Grace
EXTD=YEAR: 2004
EXTT0=
EXTT1=
EXTT2=
EXTT3=
EXTT4=
EXTT5=
EXTT6=
EXTT7=
EXTT8=
EXTT9=
EXTT10=
EXTT11=
EXTT12=
EXTT13=
PLAYORDER=
